# xmcd
#
# Track frame offsets:
#	225
#	11225
#	25941
#	35731
#	51758
#	64519
#	76789
#	88282
#	100832
#	111850
#	121846
#	134368
#
# Disc length: 1911 seconds
#
# Revision: 4
# Processed by: cddbd v1.5.2PL0 Copyright (c) Steve Scherf et al.
# Submitted via: audiograbber 1.83.01
#
DISCID=9b07740c
DTITLE=Marc Pircher - Harmonika Hits
DYEAR=1900
DGENRE=Instrumental
TTITLE0=Zillertaler Ländler
TTITLE1=Polkafahrt durchs Zillertal
TTITLE2=MCP-Boarischer
TTITLE3=Zillertaler Hochzeitsmarsch
TTITLE4=Mapi-Polka
TTITLE5=Am Strande von Rio
TTITLE6=Mein Ziacher mog i gern
TTITLE7=Frühling in Tirol
TTITLE8=Bären-Polka
TTITLE9=Die Gamsln schwarz und braun
TTITLE10=Polka gach-gach
TTITLE11=Die verrückten Finger
EXTD=
EXTT0=
EXTT1=
EXTT2=
EXTT3=
EXTT4=
EXTT5=
EXTT6=
EXTT7=
EXTT8=
EXTT9=
EXTT10=
EXTT11=
PLAYORDER=
